STARTFONT 2.1
FONT -Adobe-Palatino-Bold-R-Normal--25-180-100-100-P-136-ISO8859-1
SIZE 18 100 100
FONTBOUNDINGBOX 28 24 -3 -6

STARTPROPERTIES 26
_DEC_DEVICE_FONTNAMES "PS=Palatino-Bold"
FONTNAME_REGISTRY ""
FAMILY_NAME "Palatino"
FOUNDRY "Adobe"
WEIGHT_NAME "Bold"
SLANT "R"
SETWIDTH_NAME "Normal"
ADD_STYLE_NAME ""
PIXEL_SIZE 25
POINT_SIZE 180
RESOLUTION_X 100
RESOLUTION_Y 100
SPACING "P"
AVERAGE_WIDTH 136
CHARSET_REGISTRY "ISO8859"
CHARSET_ENCODING "1"
CHARSET_COLLECTIONS "ASCII ISO8859-1 ADOBE-STANDARD"
FULL_NAME "Palatino Bold"
COPYRIGHT "Copyright (c) 1991 Adobe Systems, Inc."
CAP_HEIGHT 18
X_HEIGHT 12
WEIGHT 10
QUAD_WIDTH 15
DEFAULT_CHAR 0
FONT_DESCENT 6
FONT_ASCENT 18
ENDPROPERTIES

CHARS 190

STARTCHAR space
ENCODING 32
SWIDTH 250 0
DWIDTH 6 0
BBX 1 1 0 0
BITMAP
00
ENDCHAR

STARTCHAR exclam
ENCODING 33
SWIDTH 278 0
DWIDTH 8 0
BBX 4 18 2 0
BITMAP
30
70
F0
F0
F0
F0
F0
F0
F0
F0
F0
60
40
00
60
F0
F0
60
ENDCHAR

STARTCHAR quotedbl
ENCODING 34
SWIDTH 402 0
DWIDTH 10 0
BBX 6 7 2 11
BITMAP
CC
CC
CC
CC
CC
88
88
ENDCHAR

STARTCHAR numbersign
ENCODING 35
SWIDTH 606 0
DWIDTH 12 0
BBX 13 18 -1 0
BITMAP
0C60
0C60
0C60
0C60
0C60
7FF8
7FF8
18C0
18C0
18C0
FFF0
FFF0
3180
3180
3180
3180
3180
3180
ENDCHAR

STARTCHAR dollar
ENCODING 36
SWIDTH 500 0
DWIDTH 12 0
BBX 11 21 0 -3
BITMAP
0400
1F80
3FC0
64C0
C440
C440
E400
F400
7F00
3FC0
0FE0
05E0
04E0
84E0
84C0
C5C0
FF80
7E00
0400
0400
0400
ENDCHAR

STARTCHAR percent
ENCODING 37
SWIDTH 889 0
DWIDTH 18 0
BBX 16 18 1 0
BITMAP
1C18
3E38
73F0
E260
E260
E4C0
ECC0
7980
0180
0300
030E
061F
0639
0C71
0C71
1872
1876
183C
ENDCHAR

STARTCHAR ampersand
ENCODING 38
SWIDTH 833 0
DWIDTH 21 0
BBX 19 18 1 0
BITMAP
078000
0FC000
1CC000
38C000
38C000
38C000
3D8000
1F0000
1E1FC0
3F3F80
6F8C00
E7CC00
E3F800
F1F800
F0FC00
7C7E60
7FDFC0
1F8780
ENDCHAR

STARTCHAR quoteright
ENCODING 39
SWIDTH 278 0
DWIDTH 8 0
BBX 6 7 1 11
BITMAP
1C
1C
38
38
70
60
C0
ENDCHAR

STARTCHAR parenleft
ENCODING 40
SWIDTH 333 0
DWIDTH 8 0
BBX 6 21 1 -3
BITMAP
0C
18
30
30
60
60
E0
E0
E0
E0
E0
E0
E0
E0
E0
60
60
30
30
18
0C
ENDCHAR

STARTCHAR parenright
ENCODING 41
SWIDTH 333 0
DWIDTH 8 0
BBX 6 21 1 -3
BITMAP
C0
60
30
30
18
18
1C
1C
1C
1C
1C
1C
1C
1C
1C
18
18
30
30
60
C0
ENDCHAR

STARTCHAR asterisk
ENCODING 42
SWIDTH 444 0
DWIDTH 11 0
BBX 9 8 1 10
BITMAP
0E00
EE00
EC00
3B80
7F80
EC00
EE00
0E00
ENDCHAR

STARTCHAR plus
ENCODING 43
SWIDTH 606 0
DWIDTH 15 0
BBX 12 12 1 0
BITMAP
0600
0600
0600
0600
0600
FFF0
FFF0
0600
0600
0600
0600
0600
ENDCHAR

STARTCHAR comma
ENCODING 44
SWIDTH 250 0
DWIDTH 6 0
BBX 7 6 -2 -3
BITMAP
1E
1E
1C
38
70
E0
ENDCHAR

STARTCHAR minus
ENCODING 45
SWIDTH 606 0
DWIDTH 14 0
BBX 12 2 1 5
BITMAP
FFF0
FFF0
ENDCHAR

STARTCHAR period
ENCODING 46
SWIDTH 250 0
DWIDTH 6 0
BBX 4 4 1 0
BITMAP
60
F0
F0
60
ENDCHAR

STARTCHAR slash
ENCODING 47
SWIDTH 296 0
DWIDTH 7 0
BBX 7 18 0 0
BITMAP
06
06
06
0C
0C
0C
18
18
18
30
30
30
60
60
60
C0
C0
C0
ENDCHAR

STARTCHAR zero
ENCODING 48
SWIDTH 500 0
DWIDTH 12 0
BBX 10 18 1 0
BITMAP
1E00
3F00
7380
6180
E1C0
E1C0
E1C0
E1C0
E1C0
E1C0
E1C0
E1C0
E1C0
E1C0
6180
7380
3F00
1E00
ENDCHAR

STARTCHAR one
ENCODING 49
SWIDTH 500 0
DWIDTH 12 0
BBX 11 18 0 0
BITMAP
0300
0F00
3F00
F700
C700
0700
0700
0700
0700
0700
0700
0700
0700
0700
0700
0700
0700
3FE0
ENDCHAR

STARTCHAR two
ENCODING 50
SWIDTH 500 0
DWIDTH 12 0
BBX 11 18 0 0
BITMAP
1F00
3F80
7FC0
63C0
41C0
41C0
01C0
0180
0380
0300
0600
0C00
0C00
1800
3000
7FE0
FFE0
FFE0
ENDCHAR

STARTCHAR three
ENCODING 51
SWIDTH 500 0
DWIDTH 12 0
BBX 10 18 1 0
BITMAP
3E00
7F00
E780
C380
8380
8380
0300
0600
1F00
3F80
03C0
01C0
01C0
01C0
81C0
C3C0
E780
7E00
ENDCHAR

STARTCHAR four
ENCODING 52
SWIDTH 500 0
DWIDTH 12 0
BBX 11 18 0 0
BITMAP
0380
0780
0780
0F80
0B80
1B80
1380
3380
2380
6380
4380
FFE0
FFE0
0380
0380
0380
0380
0FE0
ENDCHAR

STARTCHAR five
ENCODING 53
SWIDTH 500 0
DWIDTH 12 0
BBX 10 18 1 0
BITMAP
FF80
FF80
FF80
C000
C000
C000
CF00
FF80
F3C0
C1C0
01C0
01C0
01C0
01C0
8380
C780
FF00
7C00
ENDCHAR

STARTCHAR six
ENCODING 54
SWIDTH 500 0
DWIDTH 12 0
BBX 10 18 1 0
BITMAP
0380
0E00
1800
3000
7000
6000
E000
EF00
FF80
F380
E1C0
E1C0
E1C0
E1C0
E1C0
61C0
7380
1F00
ENDCHAR

STARTCHAR seven
ENCODING 55
SWIDTH 500 0
DWIDTH 12 0
BBX 10 18 1 0
BITMAP
FFC0
FFC0
FFC0
8180
8180
0300
0300
0700
0600
0600
0E00
0C00
1C00
1800
3800
3000
7000
F000
ENDCHAR

STARTCHAR eight
ENCODING 56
SWIDTH 500 0
DWIDTH 12 0
BBX 10 18 1 0
BITMAP
1E00
7F80
F1C0
E0C0
E0C0
F180
7B00
3E00
3F00
6780
C3C0
C1C0
C1C0
C1C0
C1C0
E1C0
7380
3F00
ENDCHAR

STARTCHAR nine
ENCODING 57
SWIDTH 500 0
DWIDTH 12 0
BBX 10 18 1 0
BITMAP
3E00
7380
E180
E1C0
E1C0
E1C0
E1C0
73C0
7FC0
3DC0
01C0
01C0
0380
0380
0700
0600
1C00
7000
ENDCHAR

STARTCHAR colon
ENCODING 58
SWIDTH 250 0
DWIDTH 6 0
BBX 4 12 1 0
BITMAP
60
F0
F0
60
00
00
00
00
60
F0
F0
60
ENDCHAR

STARTCHAR semicolon
ENCODING 59
SWIDTH 250 0
DWIDTH 6 0
BBX 7 15 -2 -3
BITMAP
0C
1E
1E
0C
00
00
00
00
00
1E
1E
1C
38
70
E0
ENDCHAR

STARTCHAR less
ENCODING 60
SWIDTH 606 0
DWIDTH 15 0
BBX 13 12 1 0
BITMAP
0038
00F0
03C0
0F00
3C00
F000
F000
3C00
0F00
03C0
00F0
0038
ENDCHAR

STARTCHAR equal
ENCODING 61
SWIDTH 606 0
DWIDTH 14 0
BBX 12 6 1 3
BITMAP
FFF0
FFF0
0000
0000
FFF0
FFF0
ENDCHAR

STARTCHAR greater
ENCODING 62
SWIDTH 606 0
DWIDTH 15 0
BBX 13 12 1 0
BITMAP
E000
7800
1E00
0780
01E0
0078
0078
01E0
0780
1E00
7800
E000
ENDCHAR

STARTCHAR question
ENCODING 63
SWIDTH 444 0
DWIDTH 11 0
BBX 9 18 1 0
BITMAP
7E00
FF00
CF80
8780
0780
0780
0F00
1E00
1C00
1800
1800
1800
0800
0000
1800
3C00
3C00
1800
ENDCHAR

STARTCHAR at
ENCODING 64
SWIDTH 747 0
DWIDTH 18 0
BBX 16 17 1 0
BITMAP
07F0
1E3C
380E
7006
61D3
E3B3
C733
C673
CC63
CC66
CCE6
EFFC
67B8
7003
3806
1E1C
07F0
ENDCHAR

STARTCHAR A
ENCODING 65
SWIDTH 778 0
DWIDTH 20 0
BBX 20 18 0 0
BITMAP
006000
006000
00F000
00F000
01F800
01F800
033C00
031C00
061E00
060E00
060E00
0FFF00
0FFF00
180780
180380
3003C0
3003C0
FC0FF0
ENDCHAR

STARTCHAR B
ENCODING 66
SWIDTH 667 0
DWIDTH 17 0
BBX 15 18 1 0
BITMAP
FFF0
3C78
3C3C
3C3C
3C3C
3C38
3C30
3C60
3FFC
3C3E
3C1E
3C1E
3C1E
3C1E
3C1E
3C3C
3C78
FFE0
ENDCHAR

STARTCHAR C
ENCODING 67
SWIDTH 722 0
DWIDTH 17 0
BBX 15 18 1 0
BITMAP
07F8
1F3E
3E0E
7806
7802
F000
F000
F000
F000
F000
F000
F000
F000
7800
7800
3E0E
1F3C
07F0
ENDCHAR

STARTCHAR D
ENCODING 68
SWIDTH 833 0
DWIDTH 20 0
BBX 19 18 0 0
BITMAP
FFF800
3FFF00
3C0F80
3C03C0
3C03C0
3C01E0
3C01E0
3C01E0
3C01E0
3C01E0
3C01E0
3C01E0
3C01E0
3C03C0
3C03C0
3C0F80
3FFF00
FFF800
ENDCHAR

STARTCHAR E
ENCODING 69
SWIDTH 611 0
DWIDTH 15 0
BBX 14 18 0 0
BITMAP
FFF8
3FF8
3C08
3C08
3C00
3C10
3C10
3FF0
3FF0
3C10
3C10
3C00
3C00
3C00
3C04
3C04
3FFC
FFFC
ENDCHAR

STARTCHAR F
ENCODING 70
SWIDTH 556 0
DWIDTH 14 0
BBX 13 18 0 0
BITMAP
FFF8
3FF8
3C08
3C08
3C00
3C20
3C20
3FE0
3FE0
3C20
3C20
3C00
3C00
3C00
3C00
3C00
3C00
FF00
ENDCHAR

STARTCHAR G
ENCODING 71
SWIDTH 833 0
DWIDTH 19 0
BBX 17 18 1 0
BITMAP
07F800
1F3E00
3E0E00
780600
780200
F00000
F00000
F00000
F00000
F00000
F00000
F01F80
F00700
780700
780700
3E0F00
1F3E00
07F800
ENDCHAR

STARTCHAR H
ENCODING 72
SWIDTH 833 0
DWIDTH 21 0
BBX 19 18 1 0
BITMAP
FF1FE0
3C0780
3C0780
3C0780
3C0780
3C0780
3C0780
3FFF80
3FFF80
3C0780
3C0780
3C0780
3C0780
3C0780
3C0780
3C0780
3C0780
FF1FE0
ENDCHAR

STARTCHAR I
ENCODING 73
SWIDTH 389 0
DWIDTH 10 0
BBX 8 18 1 0
BITMAP
FF
3C
3C
3C
3C
3C
3C
3C
3C
3C
3C
3C
3C
3C
3C
3C
3C
FF
ENDCHAR

STARTCHAR J
ENCODING 74
SWIDTH 389 0
DWIDTH 11 0
BBX 10 24 0 -6
BITMAP
3FC0
0F00
0F00
0F00
0F00
0F00
0F00
0F00
0F00
0F00
0F00
0F00
0F00
0F00
0F00
0F00
0F00
0F00
0F00
0F00
0F00
EE00
FC00
F800
ENDCHAR

STARTCHAR K
ENCODING 75
SWIDTH 778 0
DWIDTH 19 0
BBX 17 18 1 0
BITMAP
FF0F00
3C1C00
3C3800
3C7000
3CE000
3DC000
3F8000
3F8000
3FC000
3FC000
3DE000
3CF000
3CF800
3C7C00
3C3C00
3C1E00
3C1F00
FF0F80
ENDCHAR

STARTCHAR L
ENCODING 76
SWIDTH 611 0
DWIDTH 15 0
BBX 13 18 1 0
BITMAP
FF00
3C00
3C00
3C00
3C00
3C00
3C00
3C00
3C00
3C00
3C00
3C00
3C00
3C00
3C08
3C08
3FF8
FFF8
ENDCHAR

STARTCHAR M
ENCODING 77
SWIDTH 1000 0
DWIDTH 24 0
BBX 24 18 0 0
BITMAP
F8003F
3C003C
3C007C
3E007C
3E007C
3F00FC
3700BC
3781BC
33813C
33C33C
33C23C
31E63C
31E63C
30E43C
30FC3C
30783C
30783C
FC30FF
ENDCHAR

STARTCHAR N
ENCODING 78
SWIDTH 833 0
DWIDTH 21 0
BBX 19 18 1 0
BITMAP
F007E0
380180
3C0180
3E0180
3F0180
3F8180
37C180
33C180
31E180
31F180
30F980
307D80
303D80
301F80
301F80
300F80
300780
FC0380
ENDCHAR

STARTCHAR O
ENCODING 79
SWIDTH 833 0
DWIDTH 20 0
BBX 18 18 1 0
BITMAP
07F800
1F3E00
3C0F00
780780
780780
F003C0
F003C0
F003C0
F003C0
F003C0
F003C0
F003C0
F003C0
780780
780780
3C0F00
1F3E00
07F800
ENDCHAR

STARTCHAR P
ENCODING 80
SWIDTH 611 0
DWIDTH 15 0
BBX 14 18 0 0
BITMAP
FFF0
3C78
3C3C
3C1C
3C1C
3C1C
3C3C
3C78
3DE0
3C00
3C00
3C00
3C00
3C00
3C00
3C00
3C00
FF00
ENDCHAR

STARTCHAR Q
ENCODING 81
SWIDTH 833 0
DWIDTH 20 0
BBX 18 23 1 -5
BITMAP
07F800
1F3E00
3C0F00
780780
780780
F003C0
F003C0
F003C0
F003C0
F003C0
F003C0
F003C0
F003C0
780780
780780
3C0F00
1F3E00
07F800
01C000
07E000
0FF8C0
183F80
000F00
ENDCHAR

STARTCHAR R
ENCODING 82
SWIDTH 722 0
DWIDTH 19 0
BBX 17 18 1 0
BITMAP
FFF000
3C7800
3C3C00
3C1C00
3C1C00
3C1C00
3C3800
3C7000
3DC000
3DE000
3CF000
3CF000
3C7800
3C7800
3C3C00
3C1E00
3C1F00
FF0F80
ENDCHAR

STARTCHAR S
ENCODING 83
SWIDTH 611 0
DWIDTH 14 0
BBX 12 18 1 0
BITMAP
0FC0
3FE0
7860
F020
F020
F000
FC00
7F00
3FC0
0FE0
03F0
00F0
00F0
80F0
80F0
C1E0
FFC0
7F00
ENDCHAR

STARTCHAR T
ENCODING 84
SWIDTH 667 0
DWIDTH 16 0
BBX 16 18 0 0
BITMAP
FFFF
FFFF
83C1
83C1
03C0
03C0
03C0
03C0
03C0
03C0
03C0
03C0
03C0
03C0
03C0
03C0
03C0
0FF0
ENDCHAR

STARTCHAR U
ENCODING 85
SWIDTH 778 0
DWIDTH 18 0
BBX 18 18 0 0
BITMAP
FF0FC0
3C0300
3C0300
3C0300
3C0300
3C0300
3C0300
3C0300
3C0300
3C0300
3C0300
3C0300
3C0300
3E0300
1E0600
1F0E00
0FFC00
07F000
ENDCHAR

STARTCHAR V
ENCODING 86
SWIDTH 778 0
DWIDTH 19 0
BBX 18 18 0 0
BITMAP
FF0FC0
3C0380
3C0300
1C0300
1E0600
1E0600
0E0600
0F0C00
0F0C00
070C00
079800
039800
03B000
03F000
01F000
01E000
00E000
00E000
ENDCHAR

STARTCHAR W
ENCODING 87
SWIDTH 1000 0
DWIDTH 25 0
BBX 26 18 -1 0
BITMAP
FF061FC0
3C060300
3C070300
1C0F0300
1E0F0600
1E0F8600
0F1F8600
0F1B8600
0F19C600
07B9CC00
07B1CC00
07B0EC00
03F0EC00
03E0FC00
03E07800
01E07800
01C03800
00C03000
ENDCHAR

STARTCHAR X
ENCODING 88
SWIDTH 667 0
DWIDTH 16 0
BBX 16 18 0 0
BITMAP
180F
7C0E
FC1C
3E38
1E30
0F70
07E0
03C0
03C0
03E0
07E0
0EF0
0C78
1C38
383C
701E
F01F
E00F
ENDCHAR

STARTCHAR Y
ENCODING 89
SWIDTH 667 0
DWIDTH 16 0
BBX 16 18 0 0
BITMAP
F007
780E
380C
3C18
1C18
1E30
0E30
0F60
0760
03C0
03C0
03C0
03C0
03C0
03C0
03C0
03C0
0FF0
ENDCHAR

STARTCHAR Z
ENCODING 90
SWIDTH 667 0
DWIDTH 16 0
BBX 14 18 1 0
BITMAP
7FFC
7FFC
4078
40F0
01E0
01E0
03C0
0780
0780
0F00
0F00
1E00
1E00
3C00
7804
7804
FFFC
FFFC
ENDCHAR

STARTCHAR bracketleft
ENCODING 91
SWIDTH 333 0
DWIDTH 8 0
BBX 6 21 1 -3
BITMAP
FC
E0
E0
E0
E0
E0
E0
E0
E0
E0
E0
E0
E0
E0
E0
E0
E0
E0
E0
E0
FC
ENDCHAR

STARTCHAR backslash
ENCODING 92
SWIDTH 606 0
DWIDTH 13 0
BBX 11 18 1 0
BITMAP
E000
E000
7000
7000
3800
3800
1C00
1C00
0E00
0E00
0700
0700
0380
0380
01C0
01C0
00E0
00E0
ENDCHAR

STARTCHAR bracketright
ENCODING 93
SWIDTH 333 0
DWIDTH 8 0
BBX 6 21 1 -3
BITMAP
FC
1C
1C
1C
1C
1C
1C
1C
1C
1C
1C
1C
1C
1C
1C
1C
1C
1C
1C
1C
FC
ENDCHAR

STARTCHAR asciicircum
ENCODING 94
SWIDTH 606 0
DWIDTH 12 0
BBX 10 10 1 8
BITMAP
0C00
0C00
1E00
1E00
3300
3300
6180
6180
C0C0
C0C0
ENDCHAR

STARTCHAR underscore
ENCODING 95
SWIDTH 500 0
DWIDTH 12 0
BBX 12 2 0 -4
BITMAP
FFF0
FFF0
ENDCHAR

STARTCHAR quoteleft
ENCODING 96
SWIDTH 278 0
DWIDTH 8 0
BBX 6 7 1 11
BITMAP
0C
18
38
70
70
E0
E0
ENDCHAR

STARTCHAR a
ENCODING 97
SWIDTH 500 0
DWIDTH 13 0
BBX 12 12 1 0
BITMAP
0F00
3F80
63C0
01C0
01C0
1FC0
79C0
E1C0
E1C0
E3C0
FDC0
79F0
ENDCHAR

STARTCHAR b
ENCODING 98
SWIDTH 611 0
DWIDTH 14 0
BBX 13 18 0 0
BITMAP
1800
F800
3800
3800
3800
3800
39E0
3BF0
3E78
3C38
3838
3838
3838
3838
3830
3C70
3FE0
3380
ENDCHAR

STARTCHAR c
ENCODING 99
SWIDTH 444 0
DWIDTH 11 0
BBX 9 12 1 0
BITMAP
0F80
3F80
7180
E080
E000
E000
E000
E000
E000
7000
7F80
1F00
ENDCHAR

STARTCHAR d
ENCODING 100
SWIDTH 611 0
DWIDTH 14 0
BBX 13 18 1 0
BITMAP
0060
03E0
00E0
00E0
00E0
00E0
0EE0
3FE0
71E0
E0E0
E0E0
E0E0
E0E0
E0E0
E0E0
F1E0
7FE0
3CF8
ENDCHAR

STARTCHAR e
ENCODING 101
SWIDTH 500 0
DWIDTH 13 0
BBX 11 12 1 0
BITMAP
1F00
7FC0
71C0
E0E0
E0E0
FFE0
E000
E000
E000
7060
7FE0
1F80
ENDCHAR

STARTCHAR f
ENCODING 102
SWIDTH 389 0
DWIDTH 10 0
BBX 8 18 1 0
BITMAP
07
0F
18
38
38
38
38
7F
FF
38
38
38
38
38
38
38
38
FE
ENDCHAR

STARTCHAR g
ENCODING 103
SWIDTH 556 0
DWIDTH 14 0
BBX 13 18 0 -6
BITMAP
0FC0
39F8
70F0
70E0
70E0
70E0
39C0
1F00
1800
3000
3FE0
1FF0
7078
E038
E038
F070
78E0
1F80
ENDCHAR

STARTCHAR h
ENCODING 104
SWIDTH 611 0
DWIDTH 15 0
BBX 15 18 0 0
BITMAP
1800
F800
3800
3800
3800
3800
39F0
3BF8
3E78
3C38
3838
3838
3838
3838
3838
3838
3838
FE3E
ENDCHAR

STARTCHAR i
ENCODING 105
SWIDTH 333 0
DWIDTH 7 0
BBX 7 17 0 0
BITMAP
38
38
38
00
00
38
F8
38
38
38
38
38
38
38
38
38
FE
ENDCHAR

STARTCHAR j
ENCODING 106
SWIDTH 333 0
DWIDTH 8 0
BBX 5 23 1 -6
BITMAP
38
38
38
00
00
38
F8
38
38
38
38
38
38
38
38
38
38
38
38
38
30
E0
C0
ENDCHAR

STARTCHAR k
ENCODING 107
SWIDTH 611 0
DWIDTH 15 0
BBX 14 18 0 0
BITMAP
1800
F800
3800
3800
3800
3800
3878
3860
38C0
3980
3B00
3F00
3F80
3BC0
39E0
38F0
3878
FE3C
ENDCHAR

STARTCHAR l
ENCODING 108
SWIDTH 333 0
DWIDTH 7 0
BBX 7 18 0 0
BITMAP
18
F8
38
38
38
38
38
38
38
38
38
38
38
38
38
38
38
FE
ENDCHAR

STARTCHAR m
ENCODING 109
SWIDTH 889 0
DWIDTH 23 0
BBX 23 12 0 0
BITMAP
39E1E0
FFF7F0
3E7E78
383838
383838
383838
383838
383838
383838
383838
383838
FEFE3E
ENDCHAR

STARTCHAR n
ENCODING 110
SWIDTH 611 0
DWIDTH 15 0
BBX 15 12 0 0
BITMAP
39F0
FBF8
3E78
3C38
3838
3838
3838
3838
3838
3838
3838
FE3E
ENDCHAR

STARTCHAR o
ENCODING 111
SWIDTH 556 0
DWIDTH 13 0
BBX 11 12 1 0
BITMAP
1F00
7FC0
71C0
E0E0
E0E0
E0E0
E0E0
E0E0
E0E0
71C0
7FC0
1F00
ENDCHAR

STARTCHAR p
ENCODING 112
SWIDTH 611 0
DWIDTH 14 0
BBX 13 18 0 -6
BITMAP
19E0
FBF0
3E78
3C38
3838
3838
3838
3838
3830
3C70
3FE0
3B80
3800
3800
3800
3800
3800
FE00
ENDCHAR

STARTCHAR q
ENCODING 113
SWIDTH 611 0
DWIDTH 14 0
BBX 13 18 1 -6
BITMAP
0E60
3FE0
71E0
E0E0
E0E0
E0E0
E0E0
E0E0
E0E0
F1E0
7FE0
3CE0
00E0
00E0
00E0
00E0
00E0
03F8
ENDCHAR

STARTCHAR r
ENCODING 114
SWIDTH 389 0
DWIDTH 9 0
BBX 9 12 0 0
BITMAP
3980
FB80
3F80
3C00
3800
3800
3800
3800
3800
3800
3800
FE00
ENDCHAR

STARTCHAR s
ENCODING 115
SWIDTH 444 0
DWIDTH 11 0
BBX 9 12 1 0
BITMAP
3F00
7300
E100
E000
F800
7E00
1F00
0780
0380
8380
C700
FE00
ENDCHAR

STARTCHAR t
ENCODING 116
SWIDTH 333 0
DWIDTH 8 0
BBX 8 16 0 0
BITMAP
08
18
38
38
38
7F
FF
38
38
38
38
38
38
38
3F
1E
ENDCHAR

STARTCHAR u
ENCODING 117
SWIDTH 611 0
DWIDTH 15 0
BBX 15 12 0 0
BITMAP
1818
F8F8
3838
3838
3838
3838
3838
3838
3838
3C78
1FB8
0F3E
ENDCHAR

STARTCHAR v
ENCODING 118
SWIDTH 556 0
DWIDTH 14 0
BBX 14 12 0 0
BITMAP
FC7C
7830
3820
3860
1C60
1C40
1CC0
0EC0
0E80
0F80
0700
0700
ENDCHAR

STARTCHAR w
ENCODING 119
SWIDTH 833 0
DWIDTH 21 0
BBX 21 12 0 0
BITMAP
FE30F8
383820
387860
1C5C40
1C5C40
1CDCC0
0E8E80
0E8E80
0F8F80
070700
070700
070700
ENDCHAR

STARTCHAR x
ENCODING 120
SWIDTH 500 0
DWIDTH 13 0
BBX 13 12 0 0
BITMAP
F070
78E0
39C0
1D80
0F00
0F00
0F80
1B80
39C0
31E0
70F0
E0F8
ENDCHAR

STARTCHAR y
ENCODING 121
SWIDTH 556 0
DWIDTH 14 0
BBX 13 18 0 -6
BITMAP
FC78
7830
3830
3C60
3C60
1CC0
1EC0
1EC0
0F80
0F80
0F00
0700
0700
0600
0E00
DC00
F800
F000
ENDCHAR

STARTCHAR z
ENCODING 122
SWIDTH 500 0
DWIDTH 13 0
BBX 11 12 1 0
BITMAP
7FE0
43C0
4780
0780
0F00
0F00
1E00
1E00
3C00
3C20
7820
FFE0
ENDCHAR

STARTCHAR braceleft
ENCODING 123
SWIDTH 310 0
DWIDTH 8 0
BBX 6 21 1 -3
BITMAP
1C
30
30
70
70
70
70
70
70
60
C0
60
70
70
70
70
70
70
30
30
1C
ENDCHAR

STARTCHAR bar
ENCODING 124
SWIDTH 606 0
DWIDTH 15 0
BBX 3 18 6 0
BITMAP
E0
E0
E0
E0
E0
E0
E0
E0
E0
E0
E0
E0
E0
E0
E0
E0
E0
E0
ENDCHAR

STARTCHAR braceright
ENCODING 125
SWIDTH 310 0
DWIDTH 8 0
BBX 6 21 1 -3
BITMAP
E0
30
30
38
38
38
38
38
38
18
0C
18
38
38
38
38
38
38
30
30
E0
ENDCHAR

STARTCHAR asciitilde
ENCODING 126
SWIDTH 606 0
DWIDTH 14 0
BBX 12 4 1 5
BITMAP
3830
7E70
EFE0
C7C0
ENDCHAR

STARTCHAR exclamdown
ENCODING 161
SWIDTH 278 0
DWIDTH 8 0
BBX 4 18 2 -6
BITMAP
60
F0
F0
60
00
20
60
F0
F0
F0
F0
F0
F0
F0
F0
F0
E0
C0
ENDCHAR

STARTCHAR cent
ENCODING 162
SWIDTH 500 0
DWIDTH 12 0
BBX 10 16 1 -2
BITMAP
0080
0080
1F00
7FC0
72C0
E240
E400
E400
E800
E800
F000
70C0
7F80
3F00
4000
4000
ENDCHAR

STARTCHAR sterling
ENCODING 163
SWIDTH 500 0
DWIDTH 12 0
BBX 11 18 0 0
BITMAP
03C0
07E0
0C60
1820
3820
3800
3800
3800
3800
FF80
3800
3800
3000
3020
6020
7FE0
FFE0
C7C0
ENDCHAR

STARTCHAR currency
ENCODING 164
SWIDTH 606 0
DWIDTH 12 0
BBX 12 13 0 1
BITMAP
C030
EF70
7FE0
79E0
F0F0
E070
E070
E070
F0F0
79E0
7FE0
EF70
C030
ENDCHAR

STARTCHAR yen
ENCODING 165
SWIDTH 500 0
DWIDTH 12 0
BBX 12 18 0 0
BITMAP
6030
F030
7860
3860
1CC0
1CC0
0F80
0F80
0700
3FE0
0700
3FE0
0700
0700
0700
0700
0700
1FC0
ENDCHAR

STARTCHAR brokenbar
ENCODING 166
SWIDTH 606 0
DWIDTH 15 0
BBX 3 18 6 0
BITMAP
E0
E0
E0
E0
E0
E0
E0
00
00
00
00
E0
E0
E0
E0
E0
E0
E0
ENDCHAR

STARTCHAR section
ENCODING 167
SWIDTH 500 0
DWIDTH 12 0
BBX 10 23 1 -5
BITMAP
1F00
3F80
6180
C080
C080
E000
F800
7E00
7F80
47C0
C1C0
E0C0
F880
7F00
3F80
0FC0
03C0
01C0
40C0
40C0
6180
7F00
3E00
ENDCHAR

STARTCHAR dieresis
ENCODING 168
SWIDTH 333 0
DWIDTH 8 0
BBX 8 3 0 15
BITMAP
E7
E7
E7
ENDCHAR

STARTCHAR copyright
ENCODING 169
SWIDTH 747 0
DWIDTH 19 0
BBX 17 17 1 0
BITMAP
07F000
1C1C00
300600
600300
63E300
C7B180
CE1180
CC0180
CC0180
CC0180
CC0180
CE1980
677300
63C300
300600
1C1C00
07F000
ENDCHAR

STARTCHAR ordfeminine
ENCODING 170
SWIDTH 438 0
DWIDTH 11 0
BBX 7 10 2 8
BITMAP
78
CC
0C
7C
CC
CC
FC
76
00
FE
ENDCHAR

STARTCHAR guillemotleft
ENCODING 171
SWIDTH 500 0
DWIDTH 12 0
BBX 10 9 1 2
BITMAP
0CC0
1980
3300
6600
EE00
6600
3300
1980
0CC0
ENDCHAR

STARTCHAR logicalnot
ENCODING 172
SWIDTH 606 0
DWIDTH 14 0
BBX 12 7 1 3
BITMAP
FFF0
FFF0
0030
0030
0030
0030
0030
ENDCHAR

STARTCHAR hyphen
ENCODING 173
SWIDTH 333 0
DWIDTH 8 0
BBX 6 2 1 5
BITMAP
FC
FC
ENDCHAR

STARTCHAR registered
ENCODING 174
SWIDTH 747 0
DWIDTH 19 0
BBX 17 17 1 0
BITMAP
07F000
1C1C00
300600
6FE300
667300
C63180
C63180
C66180
C7C180
C6E180
C66180
C63180
6F3B00
600300
300600
1C1C00
07F000
ENDCHAR

STARTCHAR macron
ENCODING 175
SWIDTH 333 0
DWIDTH 8 0
BBX 8 2 0 14
BITMAP
FF
FF
ENDCHAR

STARTCHAR degree
ENCODING 176
SWIDTH 400 0
DWIDTH 9 0
BBX 8 7 0 11
BITMAP
3C
66
C3
C3
C3
66
3C
ENDCHAR

STARTCHAR plusminus
ENCODING 177
SWIDTH 606 0
DWIDTH 15 0
BBX 12 12 1 0
BITMAP
0600
0600
0600
FFF0
FFF0
0600
0600
0600
0600
0000
FFF0
FFF0
ENDCHAR

STARTCHAR twosuperior
ENCODING 178
SWIDTH 300 0
DWIDTH 7 0
BBX 7 11 0 7
BITMAP
7C
DE
8E
0E
0C
18
10
20
40
FE
FE
ENDCHAR

STARTCHAR threesuperior
ENCODING 179
SWIDTH 300 0
DWIDTH 7 0
BBX 7 11 0 7
BITMAP
7C
CE
8E
0C
18
7C
0E
06
86
CC
78
ENDCHAR

STARTCHAR acute
ENCODING 180
SWIDTH 333 0
DWIDTH 8 0
BBX 6 5 1 13
BITMAP
1C
3C
78
E0
80
ENDCHAR

STARTCHAR mu
ENCODING 181
SWIDTH 611 0
DWIDTH 15 0
BBX 15 18 0 -6
BITMAP
1818
F8F8
3838
3838
3838
3838
3838
3838
3838
3C78
3FB8
3F3E
3800
3800
3800
3800
3800
3000
ENDCHAR

STARTCHAR paragraph
ENCODING 182
SWIDTH 641 0
DWIDTH 16 0
BBX 14 20 1 -2
BITMAP
3FF8
7B30
F330
F330
F330
F330
F330
7B30
3F30
0330
0330
0330
0330
0330
0330
0330
0330
0330
0330
0FFC
ENDCHAR

STARTCHAR periodcentered
ENCODING 183
SWIDTH 250 0
DWIDTH 6 0
BBX 4 4 1 4
BITMAP
60
F0
F0
60
ENDCHAR

STARTCHAR cedilla
ENCODING 184
SWIDTH 333 0
DWIDTH 8 0
BBX 6 5 1 -5
BITMAP
30
78
1C
1C
F8
ENDCHAR

STARTCHAR onesuperior
ENCODING 185
SWIDTH 300 0
DWIDTH 7 0
BBX 6 11 0 7
BITMAP
30
70
B0
30
30
30
30
30
30
30
FC
ENDCHAR

STARTCHAR ordmasculine
ENCODING 186
SWIDTH 488 0
DWIDTH 11 0
BBX 7 10 2 8
BITMAP
38
6C
C6
C6
C6
C6
6C
38
00
FE
ENDCHAR

STARTCHAR guillemotright
ENCODING 187
SWIDTH 500 0
DWIDTH 12 0
BBX 10 9 1 2
BITMAP
CC00
6600
3300
1980
1DC0
1980
3300
6600
CC00
ENDCHAR

STARTCHAR onequarter
ENCODING 188
SWIDTH 750 0
DWIDTH 18 0
BBX 17 18 0 0
BITMAP
300600
700C00
B00800
301800
301000
303000
306000
304600
30CE00
308E00
FD9600
031600
022600
066600
0C7F80
087F80
180600
300F00
ENDCHAR

STARTCHAR onehalf
ENCODING 189
SWIDTH 750 0
DWIDTH 18 0
BBX 17 18 0 0
BITMAP
300600
700C00
B00800
301800
301000
303000
306000
305F00
30F780
30A380
FD8380
030300
020600
060400
0C0800
081000
183F80
303F80
ENDCHAR

STARTCHAR threequarters
ENCODING 190
SWIDTH 750 0
DWIDTH 18 0
BBX 17 18 0 0
BITMAP
7C0600
CE0C00
8E0800
0C1800
181000
7C3000
0E6000
064600
86CE00
CC8E00
799600
031600
022600
066600
0C7F80
087F80
180600
300F00
ENDCHAR

STARTCHAR questiondown
ENCODING 191
SWIDTH 444 0
DWIDTH 11 0
BBX 10 18 1 -6
BITMAP
0C00
1E00
1E00
0C00
0000
0800
0C00
0C00
0C00
1C00
3800
7000
E000
E040
F0C0
FF80
7F80
3F00
ENDCHAR

STARTCHAR Agrave
ENCODING 192
SWIDTH 778 0
DWIDTH 20 0
BBX 20 17 0 0
BITMAP
01C000
01E000
00F000
003800
000000
007800
007C00
00DC00
019E00
030E00
07FF00
07FF00
0C0780
180380
1803C0
3003C0
FC0FF0
ENDCHAR

STARTCHAR Aacute
ENCODING 193
SWIDTH 778 0
DWIDTH 20 0
BBX 20 17 0 0
BITMAP
003800
007800
00F000
01C000
000000
007800
007C00
00DC00
019E00
030E00
07FF00
07FF00
0C0780
180380
1803C0
3003C0
FC0FF0
ENDCHAR

STARTCHAR Acircumflex
ENCODING 194
SWIDTH 778 0
DWIDTH 20 0
BBX 20 17 0 0
BITMAP
007000
00F800
01DC00
038E00
000000
007800
007C00
00DC00
019E00
030E00
07FF00
07FF00
0C0780
180380
1803C0
3003C0
FC0FF0
ENDCHAR

STARTCHAR Atilde
ENCODING 195
SWIDTH 778 0
DWIDTH 20 0
BBX 20 17 0 0
BITMAP
01C400
03EC00
037C00
023800
000000
007800
007C00
00DC00
019E00
030E00
07FF00
07FF00
0C0780
180380
1803C0
3003C0
FC0FF0
ENDCHAR

STARTCHAR Adieresis
ENCODING 196
SWIDTH 778 0
DWIDTH 20 0
BBX 20 17 0 0
BITMAP
039C00
039C00
039C00
000000
000000
007800
007C00
00DC00
019E00
030E00
07FF00
07FF00
0C0780
180380
1803C0
3003C0
FC0FF0
ENDCHAR

STARTCHAR Aring
ENCODING 197
SWIDTH 778 0
DWIDTH 20 0
BBX 20 18 0 0
BITMAP
007000
00F800
018C00
018C00
00F800
007000
007800
007C00
00DC00
019E00
030E00
07FF00
07FF00
0C0780
180380
1803C0
3003C0
FC0FF0
ENDCHAR

STARTCHAR AE
ENCODING 198
SWIDTH 1000 0
DWIDTH 25 0
BBX 23 18 0 0
BITMAP
01FFFE
007FFE
00DE02
00DE02
019E00
019E08
031E08
031FF8
061FF8
061E08
0FFE08
1FFE00
181E00
381E00
301E02
701E02
701FFE
F87FFE
ENDCHAR

STARTCHAR Ccedilla
ENCODING 199
SWIDTH 722 0
DWIDTH 17 0
BBX 15 23 1 -5
BITMAP
07F8
1F3E
3E0E
7806
7802
F000
F000
F000
F000
F000
F000
F000
F000
7800
7800
3E0E
1F3C
07F0
0300
0780
01C0
01C0
0F80
ENDCHAR

STARTCHAR Egrave
ENCODING 200
SWIDTH 611 0
DWIDTH 15 0
BBX 14 17 0 0
BITMAP
0E00
0F00
0780
01C0
0000
FFFC
3FFC
3C04
3C10
3FF0
3FF0
3C10
3C00
3C04
3C04
3FFC
FFFC
ENDCHAR

STARTCHAR Eacute
ENCODING 201
SWIDTH 611 0
DWIDTH 15 0
BBX 14 17 0 0
BITMAP
01C0
03C0
0780
0E00
0000
FFFC
3FFC
3C04
3C10
3FF0
3FF0
3C10
3C00
3C04
3C04
3FFC
FFFC
ENDCHAR

STARTCHAR Ecircumflex
ENCODING 202
SWIDTH 611 0
DWIDTH 15 0
BBX 14 17 0 0
BITMAP
0700
0F80
1DC0
38E0
0000
FFFC
3FFC
3C04
3C10
3FF0
3FF0
3C10
3C00
3C04
3C04
3FFC
FFFC
ENDCHAR

STARTCHAR Edieresis
ENCODING 203
SWIDTH 611 0
DWIDTH 15 0
BBX 14 17 0 0
BITMAP
1CE0
1CE0
1CE0
0000
0000
FFFC
3FFC
3C04
3C10
3FF0
3FF0
3C10
3C00
3C04
3C04
3FFC
FFFC
ENDCHAR

STARTCHAR Igrave
ENCODING 204
SWIDTH 389 0
DWIDTH 10 0
BBX 8 18 1 0
BITMAP
70
78
3C
0E
00
00
FF
3C
3C
3C
3C
3C
3C
3C
3C
3C
3C
FF
ENDCHAR

STARTCHAR Iacute
ENCODING 205
SWIDTH 389 0
DWIDTH 10 0
BBX 8 17 1 0
BITMAP
0E
1E
3C
70
00
FF
3C
3C
3C
3C
3C
3C
3C
3C
3C
3C
FF
ENDCHAR

STARTCHAR Icircumflex
ENCODING 206
SWIDTH 389 0
DWIDTH 10 0
BBX 9 18 1 0
BITMAP
1C00
3E00
7700
E380
0000
0000
FF00
3C00
3C00
3C00
3C00
3C00
3C00
3C00
3C00
3C00
3C00
FF00
ENDCHAR

STARTCHAR Idieresis
ENCODING 207
SWIDTH 389 0
DWIDTH 10 0
BBX 8 18 1 0
BITMAP
E7
E7
E7
00
00
00
FF
3C
3C
3C
3C
3C
3C
3C
3C
3C
3C
FF
ENDCHAR

STARTCHAR Eth
ENCODING 208
SWIDTH 833 0
DWIDTH 20 0
BBX 19 18 0 0
BITMAP
FFF800
3FFF00
3C0F80
3C03C0
3C03C0
3C01E0
3C01E0
3C01E0
FFC1E0
3C01E0
3C01E0
3C01E0
3C01E0
3C03C0
3C03C0
3C0F80
3FFF00
FFF800
ENDCHAR

STARTCHAR Ntilde
ENCODING 209
SWIDTH 833 0
DWIDTH 21 0
BBX 19 17 1 0
BITMAP
038800
07D800
06F800
047000
000000
FE07E0
3F0180
3F8180
37C180
33E180
31F180
30F980
307D80
303F80
301F80
300F80
FC0780
ENDCHAR

STARTCHAR Ograve
ENCODING 210
SWIDTH 833 0
DWIDTH 20 0
BBX 18 18 1 0
BITMAP
038000
03C000
01E000
007000
000000
07F800
1F3E00
3C0F00
780780
780780
F003C0
F003C0
F003C0
780780
780780
3C0F00
1F3E00
07F800
ENDCHAR

STARTCHAR Oacute
ENCODING 211
SWIDTH 833 0
DWIDTH 20 0
BBX 18 18 1 0
BITMAP
003800
007800
00F000
01C000
000000
07F800
1F3E00
3C0F00
780780
780780
F003C0
F003C0
F003C0
780780
780780
3C0F00
1F3E00
07F800
ENDCHAR

STARTCHAR Ocircumflex
ENCODING 212
SWIDTH 833 0
DWIDTH 20 0
BBX 18 18 1 0
BITMAP
01C000
03E000
077000
0E3800
000000
07F800
1F3E00
3C0F00
780780
780780
F003C0
F003C0
F003C0
780780
780780
3C0F00
1F3E00
07F800
ENDCHAR

STARTCHAR Otilde
ENCODING 213
SWIDTH 833 0
DWIDTH 20 0
BBX 18 18 1 0
BITMAP
038800
07D800
06F800
047000
000000
07F800
1F3E00
3C0F00
780780
780780
F003C0
F003C0
F003C0
780780
780780
3C0F00
1F3E00
07F800
ENDCHAR

STARTCHAR Odieresis
ENCODING 214
SWIDTH 833 0
DWIDTH 20 0
BBX 18 18 1 0
BITMAP
073800
073800
073800
000000
000000
07F800
1F3E00
3C0F00
780780
780780
F003C0
F003C0
F003C0
780780
780780
3C0F00
1F3E00
07F800
ENDCHAR

STARTCHAR multiply
ENCODING 215
SWIDTH 606 0
DWIDTH 15 0
BBX 12 12 1 0
BITMAP
4020
E070
70E0
39C0
1F80
0F00
0F00
1F80
39C0
70E0
E070
4020
ENDCHAR

STARTCHAR Oslash
ENCODING 216
SWIDTH 833 0
DWIDTH 20 0
BBX 20 18 0 0
BITMAP
03FC30
0F9F60
1E07C0
3C03C0
3C03C0
7807E0
780DE0
7819E0
7831E0
7861E0
78C1E0
7981E0
7B01E0
3E03C0
3C03C0
3E0780
6F9F00
C3FC00
ENDCHAR

STARTCHAR Ugrave
ENCODING 217
SWIDTH 778 0
DWIDTH 18 0
BBX 18 18 0 0
BITMAP
038000
03C000
01E000
007000
001000
000000
FF0FC0
3C0300
3C0300
3C0300
3C0300
3C0300
3C0300
3E0300
1E0600
1F0E00
0FFC00
07F000
ENDCHAR

STARTCHAR Uacute
ENCODING 218
SWIDTH 778 0
DWIDTH 18 0
BBX 18 18 0 0
BITMAP
007000
00F000
01E000
038000
020000
000000
FF0FC0
3C0300
3C0300
3C0300
3C0300
3C0300
3C0300
3E0300
1E0600
1F0E00
0FFC00
07F000
ENDCHAR

STARTCHAR Ucircumflex
ENCODING 219
SWIDTH 778 0
DWIDTH 18 0
BBX 18 18 0 0
BITMAP
01C000
03E000
077000
0E3800
1C1C00
000000
FF0FC0
3C0300
3C0300
3C0300
3C0300
3C0300
3C0300
3E0300
1E0600
1F0E00
0FFC00
07F000
ENDCHAR

STARTCHAR Udieresis
ENCODING 220
SWIDTH 778 0
DWIDTH 18 0
BBX 18 17 0 0
BITMAP
073800
073800
073800
000000
000000
FF0FC0
3C0300
3C0300
3C0300
3C0300
3C0300
3C0300
3E0300
1E0600
1F0E00
0FFC00
07F000
ENDCHAR

STARTCHAR Yacute
ENCODING 221
SWIDTH 667 0
DWIDTH 16 0
BBX 14 18 1 0
BITMAP
0070
00F0
01E0
0380
0000
0000
700C
F818
3C30
1E60
0EC0
0780
0780
0780
0780
0780
0780
1FE0
ENDCHAR

STARTCHAR Thorn
ENCODING 222
SWIDTH 611 0
DWIDTH 15 0
BBX 14 18 0 0
BITMAP
FF00
3C00
3C00
3C00
3FF0
3C78
3C3C
3C1C
3C1C
3C1C
3C3C
3C78
3FE0
3C00
3C00
3C00
3C00
FF00
ENDCHAR

STARTCHAR germandbls
ENCODING 223
SWIDTH 611 0
DWIDTH 15 0
BBX 13 18 1 0
BITMAP
03C0
07E0
0C70
1830
3830
3830
3870
78C0
F980
39C0
39E0
38F0
3878
3838
3818
3918
3990
FFE0
ENDCHAR

STARTCHAR agrave
ENCODING 224
SWIDTH 500 0
DWIDTH 13 0
BBX 12 18 1 0
BITMAP
1C00
1E00
0F00
0380
0080
0000
0F00
3F80
63C0
01C0
01C0
1FC0
79C0
E1C0
E1C0
E3C0
FDC0
79F0
ENDCHAR

STARTCHAR aacute
ENCODING 225
SWIDTH 500 0
DWIDTH 13 0
BBX 12 18 1 0
BITMAP
0380
0780
0F00
1C00
1000
0000
0F00
3F80
63C0
01C0
01C0
1FC0
79C0
E1C0
E1C0
E3C0
FDC0
79F0
ENDCHAR

STARTCHAR acircumflex
ENCODING 226
SWIDTH 500 0
DWIDTH 13 0
BBX 12 18 1 0
BITMAP
0E00
1F00
3B80
71C0
0000
0000
0F00
3F80
63C0
01C0
01C0
1FC0
79C0
E1C0
E1C0
E3C0
FDC0
79F0
ENDCHAR

STARTCHAR atilde
ENCODING 227
SWIDTH 500 0
DWIDTH 13 0
BBX 12 18 1 0
BITMAP
1C40
3EC0
37C0
2380
0000
0000
0F00
3F80
63C0
01C0
01C0
1FC0
79C0
E1C0
E1C0
E3C0
FDC0
79F0
ENDCHAR

STARTCHAR adieresis
ENCODING 228
SWIDTH 500 0
DWIDTH 13 0
BBX 12 18 1 0
BITMAP
39C0
39C0
39C0
0000
0000
0000
0F00
3F80
63C0
01C0
01C0
1FC0
79C0
E1C0
E1C0
E3C0
FDC0
79F0
ENDCHAR

STARTCHAR aring
ENCODING 229
SWIDTH 500 0
DWIDTH 13 0
BBX 12 18 1 0
BITMAP
0E00
1F00
3180
3180
1F00
0E00
1F00
3F80
63C0
01C0
01C0
1FC0
79C0
E1C0
E1C0
E3C0
FDC0
79F0
ENDCHAR

STARTCHAR ae
ENCODING 230
SWIDTH 778 0
DWIDTH 19 0
BBX 18 12 0 0
BITMAP
0F3E00
3FFF80
63E380
01C1C0
01C1C0
1FFFC0
79C000
E1C000
E1C000
E3E0C0
FE7FC0
783F00
ENDCHAR

STARTCHAR ccedilla
ENCODING 231
SWIDTH 444 0
DWIDTH 11 0
BBX 9 17 1 -5
BITMAP
1F80
7F80
7180
E080
E000
E000
E000
E000
E000
7000
7F80
1E00
1800
3C00
0E00
0E00
7C00
ENDCHAR

STARTCHAR egrave
ENCODING 232
SWIDTH 500 0
DWIDTH 13 0
BBX 11 18 1 0
BITMAP
3800
3C00
1E00
0700
0100
0000
1F00
7FC0
71C0
E0E0
E0E0
FFE0
E000
E000
E000
70C0
7F80
1F00
ENDCHAR

STARTCHAR eacute
ENCODING 233
SWIDTH 500 0
DWIDTH 13 0
BBX 11 18 1 0
BITMAP
0700
0F00
1E00
3800
2000
0000
1F00
7FC0
71C0
E0E0
E0E0
FFE0
E000
E000
E000
70C0
7F80
1F00
ENDCHAR

STARTCHAR ecircumflex
ENCODING 234
SWIDTH 500 0
DWIDTH 13 0
BBX 11 18 1 0
BITMAP
0E00
1F00
3B80
71C0
0000
0000
1F00
7FC0
71C0
E0E0
E0E0
FFE0
E000
E000
E000
70C0
7F80
1F00
ENDCHAR

STARTCHAR edieresis
ENCODING 235
SWIDTH 500 0
DWIDTH 13 0
BBX 11 18 1 0
BITMAP
7380
7380
7380
0000
0000
0000
1F00
7FC0
71C0
E0E0
E0E0
FFE0
E000
E000
E000
70C0
7F80
1F00
ENDCHAR

STARTCHAR igrave
ENCODING 236
SWIDTH 333 0
DWIDTH 7 0
BBX 7 18 0 0
BITMAP
E0
F0
78
1C
04
00
38
F8
38
38
38
38
38
38
38
38
38
FE
ENDCHAR

STARTCHAR iacute
ENCODING 237
SWIDTH 333 0
DWIDTH 7 0
BBX 7 18 0 0
BITMAP
1C
3C
78
E0
80
00
38
F8
38
38
38
38
38
38
38
38
38
FE
ENDCHAR

STARTCHAR icircumflex
ENCODING 238
SWIDTH 333 0
DWIDTH 7 0
BBX 9 18 -1 0
BITMAP
1C00
3E00
7700
E380
0000
0000
1C00
7C00
1C00
1C00
1C00
1C00
1C00
1C00
1C00
1C00
1C00
7F00
ENDCHAR

STARTCHAR idieresis
ENCODING 239
SWIDTH 333 0
DWIDTH 7 0
BBX 8 18 0 0
BITMAP
E7
E7
E7
00
00
00
38
F8
38
38
38
38
38
38
38
38
38
FE
ENDCHAR

STARTCHAR eth
ENCODING 240
SWIDTH 556 0
DWIDTH 13 0
BBX 12 18 0 0
BITMAP
E180
3B00
0E00
1F00
3380
01C0
0EE0
3CE0
3870
7070
7070
7070
7070
7070
7070
38E0
3FE0
0F80
ENDCHAR

STARTCHAR ntilde
ENCODING 241
SWIDTH 611 0
DWIDTH 15 0
BBX 15 18 0 0
BITMAP
0E20
1F60
1BE0
11C0
0000
0000
39F0
FBF8
3E78
3C38
3838
3838
3838
3838
3838
3838
3838
FE3E
ENDCHAR

STARTCHAR ograve
ENCODING 242
SWIDTH 556 0
DWIDTH 13 0
BBX 11 18 1 0
BITMAP
3800
3C00
1E00
0700
0100
0000
1F00
7FC0
71C0
E0E0
E0E0
E0E0
E0E0
E0E0
E0E0
71C0
7FC0
1F00
ENDCHAR

STARTCHAR oacute
ENCODING 243
SWIDTH 556 0
DWIDTH 13 0
BBX 11 18 1 0
BITMAP
0700
0F00
1E00
3800
2000
0000
1F00
7FC0
71C0
E0E0
E0E0
E0E0
E0E0
E0E0
E0E0
71C0
7FC0
1F00
ENDCHAR

STARTCHAR ocircumflex
ENCODING 244
SWIDTH 556 0
DWIDTH 13 0
BBX 11 18 1 0
BITMAP
0E00
1F00
3B80
71C0
0000
0000
1F00
7FC0
71C0
E0E0
E0E0
E0E0
E0E0
E0E0
E0E0
71C0
7FC0
1F00
ENDCHAR

STARTCHAR otilde
ENCODING 245
SWIDTH 556 0
DWIDTH 13 0
BBX 11 18 1 0
BITMAP
3880
7D80
6F80
4700
0000
0000
1F00
7FC0
71C0
E0E0
E0E0
E0E0
E0E0
E0E0
E0E0
71C0
7FC0
1F00
ENDCHAR

STARTCHAR odieresis
ENCODING 246
SWIDTH 556 0
DWIDTH 13 0
BBX 11 18 1 0
BITMAP
7380
7380
7380
0000
0000
0000
1F00
7FC0
71C0
E0E0
E0E0
E0E0
E0E0
E0E0
E0E0
71C0
7FC0
1F00
ENDCHAR

STARTCHAR divide
ENCODING 247
SWIDTH 606 0
DWIDTH 15 0
BBX 12 12 1 0
BITMAP
0600
0F00
0F00
0600
0000
FFF0
FFF0
0000
0600
0F00
0F00
0600
ENDCHAR

STARTCHAR oslash
ENCODING 248
SWIDTH 556 0
DWIDTH 13 0
BBX 12 12 0 0
BITMAP
0FB0
3FF0
38E0
70F0
71F0
7370
7670
7C70
7870
78E0
FFE0
CF80
ENDCHAR

STARTCHAR ugrave
ENCODING 249
SWIDTH 611 0
DWIDTH 15 0
BBX 15 18 0 0
BITMAP
0E00
0F00
0780
01C0
0040
0000
1818
F8F8
3838
3838
3838
3838
3838
3838
3838
3C78
1FB8
0F3E
ENDCHAR

STARTCHAR uacute
ENCODING 250
SWIDTH 611 0
DWIDTH 15 0
BBX 15 18 0 0
BITMAP
01C0
03C0
0780
0E00
0800
0000
1818
F8F8
3838
3838
3838
3838
3838
3838
3838
3C78
1FB8
0F3E
ENDCHAR

STARTCHAR ucircumflex
ENCODING 251
SWIDTH 611 0
DWIDTH 15 0
BBX 15 18 0 0
BITMAP
0380
07C0
0EE0
1C70
0000
0000
1818
F8F8
3838
3838
3838
3838
3838
3838
3838
3C78
1FB8
0F3E
ENDCHAR

STARTCHAR udieresis
ENCODING 252
SWIDTH 611 0
DWIDTH 15 0
BBX 15 18 0 0
BITMAP
1CE0
1CE0
1CE0
0000
0000
0000
1818
F8F8
3838
3838
3838
3838
3838
3838
3838
3C78
1FB8
0F3E
ENDCHAR

STARTCHAR yacute
ENCODING 253
SWIDTH 556 0
DWIDTH 14 0
BBX 13 24 0 -6
BITMAP
00E0
01E0
03C0
0700
0400
0000
FC78
7830
3830
3C60
3C60
1CC0
1EC0
1EC0
0F80
0F80
0F00
0700
0700
0600
0E00
DC00
F800
F000
ENDCHAR

STARTCHAR thorn
ENCODING 254
SWIDTH 611 0
DWIDTH 14 0
BBX 13 24 0 -6
BITMAP
1800
F800
3800
3800
3800
3800
39E0
3BF0
3E78
3C38
3838
3838
3838
3838
3830
3C70
3FE0
3B80
3800
3800
3800
3800
3800
FE00
ENDCHAR

STARTCHAR ydieresis
ENCODING 255
SWIDTH 556 0
DWIDTH 14 0
BBX 13 24 0 -6
BITMAP
39C0
39C0
39C0
0000
0000
0000
FC78
7830
3830
3C60
3C60
1CC0
1EC0
1EC0
0F80
0F80
0F00
0700
0700
0600
0E00
DC00
F800
F000
ENDCHAR
ENDFONT
